<?xml version="1.0" encoding="UTF-8" standalone="no"?>
<!DOCTYPE svg PUBLIC "-//W3C//DTD SVG 1.1//EN"
 "http://www.w3.org/Graphics/SVG/1.1/DTD/svg11.dtd">
<!-- Generated by graphviz version 2.38.0 (20140413.2041)
 -->
<!-- Title: erd Pages: 1 -->
<svg width="423pt" height="342pt"
 viewBox="0.00 0.00 423.00 342.00" xmlns="http://www.w3.org/2000/svg" xmlns:xlink="http://www.w3.org/1999/xlink">
<g id="graph0" class="graph" transform="scale(1 1) rotate(0) translate(4 338)">
<title>erd</title>
<polygon fill="white" stroke="none" points="-4,4 -4,-338 419,-338 419,4 -4,4"/>
<!-- query -->
<g id="node1" class="node"><title>query</title>
<polygon fill="none" stroke="black" points="8,-242 8,-267 210,-267 210,-242 8,-242"/>
<text text-anchor="start" x="90.7856" y="-250.6" font-family="Times,serif" font-weight="bold" font-size="16.00">query</text>
<polygon fill="none" stroke="black" points="8,-217 8,-242 210,-242 210,-217 8,-217"/>
<text text-anchor="start" x="11" y="-224.6" font-family="Times,serif" font-size="16.00">getBlogPost(id:Int!): BlogPost</text>
<polygon fill="none" stroke="black" points="8,-192 8,-217 210,-217 210,-192 8,-192"/>
<text text-anchor="start" x="12.3368" y="-199.6" font-family="Times,serif" font-size="16.00">getAllBlogPosts: [BlogPost!]!</text>
<polygon fill="none" stroke="black" points="8,-167 8,-192 210,-192 210,-167 8,-167"/>
<text text-anchor="start" x="39.4784" y="-174.6" font-family="Times,serif" font-size="16.00">getUser(id:Int!): User</text>
</g>
<!-- BlogPost -->
<g id="node2" class="node"><title>BlogPost</title>
<polygon fill="none" stroke="black" points="262.5,-305 262.5,-330 407.5,-330 407.5,-305 262.5,-305"/>
<text text-anchor="start" x="305.66" y="-313.6" font-family="Times,serif" font-weight="bold" font-size="16.00">BlogPost</text>
<polygon fill="none" stroke="black" points="262.5,-280 262.5,-305 407.5,-305 407.5,-280 262.5,-280"/>
<text text-anchor="start" x="313.004" y="-287.6" font-family="Times,serif" font-size="16.00">id: Int!</text>
<polygon fill="none" stroke="black" points="262.5,-255 262.5,-280 407.5,-280 407.5,-255 262.5,-255"/>
<text text-anchor="start" x="289.008" y="-262.6" font-family="Times,serif" font-size="16.00">image: String!</text>
<polygon fill="none" stroke="black" points="262.5,-230 262.5,-255 407.5,-255 407.5,-230 262.5,-230"/>
<text text-anchor="start" x="296.113" y="-237.6" font-family="Times,serif" font-size="16.00">title: String!</text>
<polygon fill="none" stroke="black" points="262.5,-205 262.5,-230 407.5,-230 407.5,-205 262.5,-205"/>
<text text-anchor="start" x="288.119" y="-212.6" font-family="Times,serif" font-size="16.00">author: String!</text>
<polygon fill="none" stroke="black" points="262.5,-180 262.5,-205 407.5,-205 407.5,-180 262.5,-180"/>
<text text-anchor="start" x="278.794" y="-187.6" font-family="Times,serif" font-size="16.00">date: Timestamp!</text>
<polygon fill="none" stroke="black" points="262.5,-155 262.5,-180 407.5,-180 407.5,-155 262.5,-155"/>
<text text-anchor="start" x="278.785" y="-162.6" font-family="Times,serif" font-size="16.00">summary: String!</text>
<polygon fill="none" stroke="black" points="262.5,-130 262.5,-155 407.5,-155 407.5,-130 262.5,-130"/>
<text text-anchor="start" x="265.476" y="-137.6" font-family="Times,serif" font-size="16.00">paragraphs: [String!]!</text>
</g>
<!-- query&#45;&gt;BlogPost -->
<g id="edge1" class="edge"><title>query:getBlogPostport&#45;&gt;BlogPost</title>
<path fill="none" stroke="black" d="M211,-230C221.584,-230 232.682,-230 243.695,-230"/>
<polygon fill="black" stroke="black" points="243.767,-233.5 253.767,-230 243.767,-226.5 243.767,-233.5"/>
</g>
<!-- query&#45;&gt;BlogPost -->
<g id="edge2" class="edge"><title>query:getAllBlogPostsport&#45;&gt;BlogPost</title>
<path fill="none" stroke="black" d="M211,-204C221.736,-204 232.889,-204.967 243.898,-206.529"/>
<polygon fill="black" stroke="black" points="243.527,-210.014 253.951,-208.12 244.621,-203.1 243.527,-210.014"/>
</g>
<!-- User -->
<g id="node3" class="node"><title>User</title>
<polygon fill="none" stroke="black" points="274.5,-79 274.5,-104 394.5,-104 394.5,-79 274.5,-79"/>
<text text-anchor="start" x="319.399" y="-87.6" font-family="Times,serif" font-weight="bold" font-size="16.00">User</text>
<polygon fill="none" stroke="black" points="274.5,-54 274.5,-79 394.5,-79 394.5,-54 274.5,-54"/>
<text text-anchor="start" x="312.504" y="-61.6" font-family="Times,serif" font-size="16.00">id: Int!</text>
<polygon fill="none" stroke="black" points="274.5,-29 274.5,-54 394.5,-54 394.5,-29 274.5,-29"/>
<text text-anchor="start" x="277.406" y="-36.6" font-family="Times,serif" font-size="16.00">username: String!</text>
<polygon fill="none" stroke="black" points="274.5,-4 274.5,-29 394.5,-29 394.5,-4 274.5,-4"/>
<text text-anchor="start" x="277.845" y="-11.6" font-family="Times,serif" font-size="16.00">password: String!</text>
</g>
<!-- query&#45;&gt;User -->
<g id="edge3" class="edge"><title>query:getUserport&#45;&gt;User</title>
<path fill="none" stroke="black" d="M211,-179C244.534,-179 231.055,-141.456 254,-117 255.566,-115.33 257.179,-113.668 258.828,-112.016"/>
<polygon fill="black" stroke="black" points="261.493,-114.309 266.272,-104.853 256.64,-109.265 261.493,-114.309"/>
</g>
</g>
</svg>
