<?xml version="1.0" encoding="UTF-8" standalone="no"?>
<!DOCTYPE svg PUBLIC "-//W3C//DTD SVG 1.1//EN"
 "http://www.w3.org/Graphics/SVG/1.1/DTD/svg11.dtd">
<!-- Generated by graphviz version 2.38.0 (20140413.2041)
 -->
<!-- Title: erd Pages: 1 -->
<svg width="423pt" height="266pt"
 viewBox="0.00 0.00 423.00 266.00" xmlns="http://www.w3.org/2000/svg" xmlns:xlink="http://www.w3.org/1999/xlink">
<g id="graph0" class="graph" transform="scale(1 1) rotate(0) translate(4 262)">
<title>erd</title>
<polygon fill="white" stroke="none" points="-4,4 -4,-262 419,-262 419,4 -4,4"/>
<!-- query -->
<g id="node1" class="node"><title>query</title>
<polygon fill="none" stroke="black" points="8,-154 8,-179 210,-179 210,-154 8,-154"/>
<text text-anchor="start" x="90.7856" y="-162.6" font-family="Times,serif" font-weight="bold" font-size="16.00">query</text>
<polygon fill="none" stroke="black" points="8,-129 8,-154 210,-154 210,-129 8,-129"/>
<text text-anchor="start" x="11" y="-136.6" font-family="Times,serif" font-size="16.00">getBlogPost(id:Int!): BlogPost</text>
<polygon fill="none" stroke="black" points="8,-104 8,-129 210,-129 210,-104 8,-104"/>
<text text-anchor="start" x="12.3368" y="-111.6" font-family="Times,serif" font-size="16.00">getAllBlogPosts: [BlogPost!]!</text>
</g>
<!-- BlogPost -->
<g id="node2" class="node"><title>BlogPost</title>
<polygon fill="none" stroke="black" points="262.5,-229 262.5,-254 407.5,-254 407.5,-229 262.5,-229"/>
<text text-anchor="start" x="305.66" y="-237.6" font-family="Times,serif" font-weight="bold" font-size="16.00">BlogPost</text>
<polygon fill="none" stroke="black" points="262.5,-204 262.5,-229 407.5,-229 407.5,-204 262.5,-204"/>
<text text-anchor="start" x="313.004" y="-211.6" font-family="Times,serif" font-size="16.00">id: Int!</text>
<polygon fill="none" stroke="black" points="262.5,-179 262.5,-204 407.5,-204 407.5,-179 262.5,-179"/>
<text text-anchor="start" x="289.008" y="-186.6" font-family="Times,serif" font-size="16.00">image: String!</text>
<polygon fill="none" stroke="black" points="262.5,-154 262.5,-179 407.5,-179 407.5,-154 262.5,-154"/>
<text text-anchor="start" x="296.113" y="-161.6" font-family="Times,serif" font-size="16.00">title: String!</text>
<polygon fill="none" stroke="black" points="262.5,-129 262.5,-154 407.5,-154 407.5,-129 262.5,-129"/>
<text text-anchor="start" x="288.119" y="-136.6" font-family="Times,serif" font-size="16.00">author: String!</text>
<polygon fill="none" stroke="black" points="262.5,-104 262.5,-129 407.5,-129 407.5,-104 262.5,-104"/>
<text text-anchor="start" x="278.794" y="-111.6" font-family="Times,serif" font-size="16.00">date: Timestamp!</text>
<polygon fill="none" stroke="black" points="262.5,-79 262.5,-104 407.5,-104 407.5,-79 262.5,-79"/>
<text text-anchor="start" x="278.785" y="-86.6" font-family="Times,serif" font-size="16.00">summary: String!</text>
<polygon fill="none" stroke="black" points="262.5,-54 262.5,-79 407.5,-79 407.5,-54 262.5,-54"/>
<text text-anchor="start" x="265.476" y="-61.6" font-family="Times,serif" font-size="16.00">paragraphs: [String!]!</text>
<polygon fill="none" stroke="black" points="262.5,-29 262.5,-54 407.5,-54 407.5,-29 262.5,-29"/>
<text text-anchor="start" x="273.459" y="-36.6" font-family="Times,serif" font-size="16.00">isPrivate: Boolean!</text>
<polygon fill="none" stroke="black" points="262.5,-4 262.5,-29 407.5,-29 407.5,-4 262.5,-4"/>
<text text-anchor="start" x="267.226" y="-11.6" font-family="Times,serif" font-size="16.00">postPassword: String</text>
</g>
<!-- query&#45;&gt;BlogPost -->
<g id="edge1" class="edge"><title>query:getBlogPostport&#45;&gt;BlogPost</title>
<path fill="none" stroke="black" d="M211,-141C221.634,-141 232.764,-140.547 243.793,-139.816"/>
<polygon fill="black" stroke="black" points="244.162,-143.298 253.878,-139.072 243.647,-136.317 244.162,-143.298"/>
</g>
<!-- query&#45;&gt;BlogPost -->
<g id="edge2" class="edge"><title>query:getAllBlogPostsport&#45;&gt;BlogPost</title>
<path fill="none" stroke="black" d="M211,-116C221.643,-116 232.778,-116.491 243.81,-117.283"/>
<polygon fill="black" stroke="black" points="243.65,-120.781 253.897,-118.089 244.207,-113.803 243.65,-120.781"/>
</g>
</g>
</svg>
