<svg version="1.1" viewBox="0.0 0.0 960.0 540.0" fill="none" stroke="none" stroke-linecap="square" stroke-miterlimit="10" xmlns:xlink="http://www.w3.org/1999/xlink" xmlns="http://www.w3.org/2000/svg"><clipPath id="g3dd5c86ed2d_0_36.0"><path d="m0 0l960.0 0l0 540.0l-960.0 0l0 -540.0z" clip-rule="nonzero"/></clipPath><g clip-path="url(#g3dd5c86ed2d_0_36.0)"><path fill="#212121" d="m0 0l960.0 0l0 540.0l-960.0 0z" fill-rule="evenodd"/><path fill="#000000" fill-opacity="0.0" d="m0 0.005249344l960.0 0l0 540.0l-960.0 0z" fill-rule="evenodd"/><path fill="#ffff00" d="m121.67737 119.46713q-4.1875 -4.71875 -8.5 -7.953125l4.78125 -5.0625q5.0 3.15625 8.453125 7.6875l-4.734375 5.328125zm30.453125 24.859375q1.4375 0 1.578125 -1.21875l0.359375 -3.953125l-3.75 0l-0.71875 2.40625l-5.734375 -1.28125l1.953125 -7.390625l-3.765625 0q0 15.53125 -14.0 18.03125l-2.234375 -5.734375q10.421875 -1.640625 10.421875 -12.296875l-4.03125 0l0 -2.265625q-2.046875 1.5 -6.078125 2.9375l-2.5 -5.375q9.796875 -4.296875 13.03125 -8.5l-10.71875 0l0 -5.375l15.21875 0l0 -1.546875l-13.203125 0.4375l-1.640625 -5.328125q22.515625 -0.953125 29.78125 -3.125l2.875 4.453125q1.203125 2.984375 -2.453125 1.765625l-9.09375 1.0l0 2.34375l15.453125 0l0 5.375l-10.671875 0q3.78125 3.9375 13.0625 7.34375l-3.09375 5.859375q-9.921875 -3.71875 -14.75 -10.09375l0 4.734375l5.09375 0l-1.125 6.265625l9.109375 0l-0.984375 10.59375q-0.53125 5.96875 -6.265625 5.96875l-6.890625 0l-0.328125 -6.03125l6.09375 0zm13.703125 6.484375l-1.59375 6.046875l-28.0 0q-10.046875 0 -14.671875 -5.46875l-7.640625 6.484375l-3.015625 -7.265625l7.40625 -3.703125l0 -14.015625l-6.71875 0l0 -6.03125l12.984375 0l0 19.046875q2.359375 4.90625 11.421875 4.90625l29.828125 0zm-24.671875 -27.453125q-1.375 2.109375 -4.453125 4.171875l4.453125 0l0 -4.171875zm28.78125 27.421875q4.859375 -1.890625 8.390625 -4.046875l0 -13.171875l-6.71875 0l0 -6.03125l12.96875 0l0 19.234375q2.09375 3.609375 11.65625 3.609375l28.46875 0l-1.578125 6.03125l-29.578125 0q-8.015625 0 -12.359375 -4.96875q-2.0625 2.078125 -7.921875 6.3125l-3.328125 -6.96875zm9.21875 -43.421875q5.1875 3.640625 8.140625 8.203125l-5.046875 5.03125q-3.90625 -5.203125 -8.21875 -8.71875l5.125 -4.515625zm22.671875 39.421875l-5.59375 0l0 -15.890625l16.5625 0l0 13.203125l-10.96875 0l0 2.6875zm5.375 -8.0625l0 -2.46875l-5.375 0l0 2.46875l5.375 0zm14.328125 5.828125q0 4.6875 -4.703125 4.6875l-4.828125 0l-0.625 -6.03125l3.890625 0q0 0 0 0l0 -13.671875l-21.953125 0l0 20.15625l-6.25 0l0 -26.1875l4.921875 0l0 -16.34375l25.0625 0l0 16.34375l4.484375 0l0 21.046875zm-10.0625 -24.421875l-4.9375 0l0 3.375l4.9375 0l0 -3.375zm0 -5.359375l0 -2.25l-13.890625 0l0 10.984375l3.359375 0l0 -8.734375l10.53125 0z" fill-rule="nonzero"/><path fill="#ffffff" d="m247.33934 153.04526l0 -41.03125l18.20314 0q5.484375 0 8.34375 1.109375q2.859375 1.09375 4.5625 3.890625q1.703125 2.796875 1.703125 6.1875q0 4.375 -2.828125 7.375q-2.828125 2.984375 -8.734375 3.796875q2.15625 1.03125 3.28125 2.046875q2.375 2.1875 4.5 5.453125l7.140625 11.171875l-6.828125 0l-5.4375 -8.53125q-2.375 -3.703125 -3.921875 -5.65625q-1.53125 -1.96875 -2.75 -2.75q-1.21875 -0.78125 -2.46875 -1.09375q-0.9375 -0.1875 -3.03125 -0.1875l-6.2968903 0l0 18.21875l-5.4375 0zm5.4375 -22.921875l11.67189 0q3.71875 0 5.8125 -0.765625q2.109375 -0.78125 3.203125 -2.46875q1.09375 -1.703125 1.09375 -3.6875q0 -2.90625 -2.125 -4.78125q-2.109375 -1.875 -6.671875 -1.875l-12.98439 0l0 13.578125zm55.588028 13.34375l5.203125 0.65625q-1.21875 4.5625 -4.5625 7.078125q-3.328125 2.515625 -8.5 2.515625q-6.53125 0 -10.359375 -4.015625q-3.8125 -4.015625 -3.8125 -11.265625q0 -7.5 3.859375 -11.640625q3.875 -4.15625 10.03125 -4.15625q5.96875 0 9.734375 4.0625q3.78125 4.0625 3.78125 11.421875q0 0.453125 -0.03125 1.34375l-22.15625 0q0.265625 4.90625 2.75 7.515625q2.5 2.59375 6.234375 2.59375q2.765625 0 4.71875 -1.453125q1.96875 -1.453125 3.109375 -4.65625zm-16.546875 -8.140625l16.609375 0q-0.34375 -3.75 -1.90625 -5.625q-2.40625 -2.90625 -6.234375 -2.90625q-3.484375 0 -5.84375 2.328125q-2.359375 2.3125 -2.625 6.203125zm39.086304 13.21875l0.71875 4.4375q-2.125 0.453125 -3.796875 0.453125q-2.75 0 -4.265625 -0.859375q-1.5 -0.875 -2.125 -2.28125q-0.609375 -1.421875 -0.609375 -5.953125l0 -17.109375l-3.703125 0l0 -3.921875l3.703125 0l0 -7.359375l5.015625 -3.015625l0 10.375l5.0625 0l0 3.921875l-5.0625 0l0 17.390625q0 2.15625 0.265625 2.78125q0.265625 0.609375 0.859375 0.96875q0.609375 0.359375 1.71875 0.359375q0.84375 0 2.21875 -0.1875zm4.8651123 4.5l0 -29.734375l4.53125 0l0 4.515625q1.75 -3.171875 3.21875 -4.171875q1.46875 -1.015625 3.234375 -1.015625q2.546875 0 5.171875 1.625l-1.734375 4.6875q-1.84375 -1.09375 -3.703125 -1.09375q-1.640625 0 -2.96875 1.0q-1.3125 0.984375 -1.875 2.75q-0.828125 2.6875 -0.828125 5.875l0 15.5625l-5.046875 0zm18.934448 11.453125l-0.5625 -4.734375q1.640625 0.453125 2.875 0.453125q1.6875 0 2.6875 -0.5625q1.015625 -0.5625 1.65625 -1.578125q0.46875 -0.75 1.53125 -3.75q0.140625 -0.40625 0.453125 -1.21875l-11.28125 -29.796875l5.4375 0l6.1875 17.21875q1.203125 3.28125 2.15625 6.890625q0.859375 -3.46875 2.0625 -6.78125l6.359375 -17.328125l5.03125 0l-11.3125 30.234375q-1.8125 4.90625 -2.8125 6.75q-1.34375 2.484375 -3.09375 3.640625q-1.734375 1.171875 -4.140625 1.171875q-1.453125 0 -3.234375 -0.609375zm29.695312 -11.453125l0 -41.03125l5.421875 0l0 16.84375l21.328125 0l0 -16.84375l5.4375 0l0 41.03125l-5.4375 0l0 -19.34375l-21.328125 0l0 19.34375l-5.421875 0zm59.9787 -3.671875q-2.796875 2.390625 -5.390625 3.375q-2.578125 0.96875 -5.546875 0.96875q-4.90625 0 -7.53125 -2.390625q-2.625 -2.390625 -2.625 -6.125q0 -2.171875 0.984375 -3.96875q1.0 -1.8125 2.609375 -2.90625q1.609375 -1.09375 3.625 -1.65625q1.484375 -0.390625 4.46875 -0.75q6.109375 -0.734375 8.984375 -1.734375q0.03125 -1.046875 0.03125 -1.328125q0 -3.078125 -1.421875 -4.328125q-1.9375 -1.71875 -5.734375 -1.71875q-3.5625 0 -5.265625 1.25q-1.6875 1.25 -2.5 4.40625l-4.921875 -0.671875q0.671875 -3.15625 2.203125 -5.09375q1.546875 -1.953125 4.453125 -3.0q2.921875 -1.0625 6.75 -1.0625q3.8125 0 6.1875 0.90625q2.375 0.890625 3.5 2.25q1.125 1.359375 1.5625 3.421875q0.265625 1.296875 0.265625 4.65625l0 6.71875q0 7.015625 0.3125 8.890625q0.328125 1.859375 1.28125 3.5625l-5.265625 0q-0.78125 -1.5625 -1.015625 -3.671875zm-0.421875 -11.25q-2.734375 1.125 -8.21875 1.90625q-3.109375 0.453125 -4.40625 1.015625q-1.28125 0.546875 -1.984375 1.625q-0.6875 1.078125 -0.6875 2.390625q0 2.015625 1.515625 3.359375q1.53125 1.34375 4.46875 1.34375q2.90625 0 5.171875 -1.265625q2.265625 -1.28125 3.34375 -3.484375q0.796875 -1.703125 0.796875 -5.046875l0 -1.84375zm12.914429 14.921875l0 -29.734375l4.53125 0l0 4.234375q3.28125 -4.90625 9.46875 -4.90625q2.6875 0 4.9375 0.96875q2.25 0.96875 3.359375 2.546875q1.125 1.5625 1.578125 3.71875q0.28125 1.390625 0.28125 4.890625l0 18.28125l-5.046875 0l0 -18.078125q0 -3.078125 -0.59375 -4.609375q-0.578125 -1.53125 -2.078125 -2.4375q-1.484375 -0.90625 -3.5 -0.90625q-3.21875 0 -5.5625 2.046875q-2.34375 2.03125 -2.34375 7.75l0 16.234375l-5.03125 0zm51.16443 0l0 -3.75q-2.828125 4.421875 -8.3125 4.421875q-3.546875 0 -6.53125 -1.953125q-2.984375 -1.96875 -4.625 -5.46875q-1.640625 -3.515625 -1.640625 -8.078125q0 -4.453125 1.484375 -8.078125q1.484375 -3.625 4.453125 -5.5625q2.96875 -1.9375 6.640625 -1.9375q2.6875 0 4.78125 1.140625q2.109375 1.140625 3.421875 2.953125l0 -14.71875l5.0 0l0 41.03125l-4.671875 0zm-15.921875 -14.828125q0 5.703125 2.40625 8.53125q2.40625 2.828125 5.6875 2.828125q3.296875 0 5.609375 -2.703125q2.3125 -2.703125 2.3125 -8.25q0 -6.09375 -2.359375 -8.953125q-2.34375 -2.859375 -5.796875 -2.859375q-3.359375 0 -5.609375 2.75q-2.25 2.734375 -2.25 8.65625zm28.414429 14.828125l0 -41.03125l5.03125 0l0 41.03125l-5.03125 0zm33.189636 -9.578125l5.203125 0.65625q-1.21875 4.5625 -4.5625 7.078125q-3.328125 2.515625 -8.5 2.515625q-6.53125 0 -10.359375 -4.015625q-3.8125 -4.015625 -3.8125 -11.265625q0 -7.5 3.859375 -11.640625q3.875 -4.15625 10.03125 -4.15625q5.96875 0 9.734375 4.0625q3.78125 4.0625 3.78125 11.421875q0 0.453125 -0.03125 1.34375l-22.15625 0q0.265625 4.90625 2.75 7.515625q2.5 2.59375 6.234375 2.59375q2.765625 0 4.71875 -1.453125q1.96875 -1.453125 3.109375 -4.65625zm-16.546875 -8.140625l16.609375 0q-0.34375 -3.75 -1.90625 -5.625q-2.40625 -2.90625 -6.234375 -2.90625q-3.484375 0 -5.84375 2.328125q-2.359375 2.3125 -2.625 6.203125zm28.023804 17.71875l0 -29.734375l4.53125 0l0 4.515625q1.75 -3.171875 3.21875 -4.171875q1.46875 -1.015625 3.234375 -1.015625q2.546875 0 5.171875 1.625l-1.734375 4.6875q-1.84375 -1.09375 -3.703125 -1.09375q-1.640625 0 -2.96875 1.0q-1.3125 0.984375 -1.875 2.75q-0.828125 2.6875 -0.828125 5.875l0 15.5625l-5.046875 0z" fill-rule="nonzero"/><path fill="#ffffff" d="m612.6185 134.23276l0 13.21875q4.703125 5.375 14.109375 5.375l24.1875 0l-1.796875 4.25l-22.390625 0q-10.296875 0 -16.34375 -6.5l-6.28125 6.5q-0.671875 2.6875 -2.015625 0.890625l-2.234375 -4.46875l8.28125 -5.609375l0 -9.40625l-8.5 0l0 -4.25l12.984375 0zm-9.1875 -15.0q3.140625 1.5625 8.734375 5.59375l-2.453125 4.03125q-4.9375 -3.578125 -8.734375 -5.8125l2.453125 -3.8125zm2.015625 -11.640625q3.359375 1.78125 8.515625 5.59375l-2.6875 4.25q-4.484375 -3.796875 -8.28125 -6.046875l2.453125 -3.796875zm43.21875 8.0625l0 4.25l-34.484375 0l0 -4.25l34.484375 0zm-5.140625 -6.71875l0 3.578125l-24.40625 0l0 -3.578125l24.40625 0zm0.21875 14.109375l0 3.578125l-24.40625 0l0 -3.578125l24.40625 0zm-0.21875 7.15625l0 3.578125l-24.1875 0l0 -3.578125l24.1875 0zm1.5625 7.171875l0 13.4375l-4.484375 0l0 -0.671875l0 -0.671875l-17.234375 0l0 1.34375l-4.484375 0l0 -13.4375l26.203125 0zm-21.71875 8.5l17.234375 0l0 -4.921875l-17.234375 0l0 4.921875zm78.15625 10.53125l0 -1.5625l-25.75 0l0 2.453125l-3.8125 0l0 -47.921875l33.359375 0l0 47.03125l-3.796875 0zm-34.046875 1.125l-4.46875 0l0 -27.546875q-1.796875 3.125 -4.265625 5.8125l-2.90625 -3.796875q7.609375 -8.953125 10.296875 -25.53125l4.703125 1.796875q0.90625 0.890625 -0.671875 1.109375q-0.890625 5.15625 -3.359375 12.546875q2.6875 0.21875 0.671875 1.5625l0 34.046875zm16.34375 -23.75l0 7.171875l10.078125 0l0 -7.171875l-10.078125 0zm-8.046875 -20.140625l0 36.9375l25.75 0l0 -36.9375l-25.75 0zm15.0 7.390625l8.5 0l0 4.25l-8.5 0l0 4.921875l6.9375 0l0 16.125l-3.8125 0l0 -1.796875l-10.078125 0l0 2.6875l-3.796875 0l0 -17.015625l6.265625 0l0 -4.921875l-8.28125 0l0 -4.25l8.28125 0l0 -5.828125l4.25 0q1.796875 0.21875 0.234375 1.34375l0 4.484375z" fill-rule="nonzero"/><path fill="#ffffff" d="m731.2805 153.04526l0 -41.03125l15.390625 0q4.703125 0 7.546875 1.25q2.84375 1.234375 4.453125 3.828125q1.609375 2.59375 1.609375 5.40625q0 2.640625 -1.4375 4.96875q-1.421875 2.3125 -4.3125 3.75q3.734375 1.078125 5.734375 3.71875q2.0 2.625 2.0 6.21875q0 2.875 -1.21875 5.359375q-1.21875 2.46875 -3.015625 3.8125q-1.78125 1.34375 -4.484375 2.03125q-2.703125 0.6875 -6.625 0.6875l-15.640625 0zm5.421875 -23.796875l8.875 0q3.609375 0 5.1875 -0.46875q2.0625 -0.625 3.109375 -2.046875q1.0625 -1.421875 1.0625 -3.578125q0 -2.046875 -0.984375 -3.59375q-0.984375 -1.5625 -2.8125 -2.125q-1.8125 -0.578125 -6.234375 -0.578125l-8.203125 0l0 12.390625zm0 18.953125l10.21875 0q2.640625 0 3.703125 -0.1875q1.875 -0.34375 3.125 -1.125q1.265625 -0.78125 2.078125 -2.28125q0.8125 -1.5 0.8125 -3.453125q0 -2.296875 -1.1875 -3.984375q-1.171875 -1.703125 -3.265625 -2.390625q-2.078125 -0.6875 -5.984375 -0.6875l-9.5 0l0 14.109375zm59.956177 -36.1875l5.4375 0l0 23.703125q0 6.1875 -1.40625 9.828125q-1.390625 3.640625 -5.046875 5.921875q-3.65625 2.28125 -9.578125 2.28125q-5.78125 0 -9.453125 -1.984375q-3.65625 -2.0 -5.234375 -5.765625q-1.5625 -3.765625 -1.5625 -10.28125l0 -23.703125l5.4375 0l0 23.671875q0 5.34375 0.984375 7.890625q1.0 2.53125 3.421875 3.90625q2.421875 1.359375 5.921875 1.359375q5.984375 0 8.53125 -2.703125q2.546875 -2.71875 2.546875 -10.453125l0 -23.671875zm33.681763 24.9375l0 -4.8125l17.390625 -0.03125l0 15.234375q-4.015625 3.1875 -8.265625 4.796875q-4.25 1.609375 -8.734375 1.609375q-6.046875 0 -10.984375 -2.59375q-4.9375 -2.59375 -7.46875 -7.484375q-2.515625 -4.90625 -2.515625 -10.953125q0 -5.984375 2.5 -11.171875q2.515625 -5.203125 7.21875 -7.71875q4.703125 -2.515625 10.828125 -2.515625q4.453125 0 8.046875 1.4375q3.609375 1.4375 5.640625 4.015625q2.046875 2.578125 3.109375 6.71875l-4.890625 1.34375q-0.921875 -3.125 -2.296875 -4.921875q-1.375 -1.796875 -3.921875 -2.875q-2.546875 -1.078125 -5.65625 -1.078125q-3.71875 0 -6.4375 1.140625q-2.71875 1.125 -4.390625 2.984375q-1.65625 1.84375 -2.578125 4.046875q-1.5625 3.8125 -1.5625 8.265625q0 5.484375 1.875 9.1875q1.890625 3.6875 5.5 5.484375q3.625 1.78125 7.671875 1.78125q3.53125 0 6.890625 -1.359375q3.359375 -1.359375 5.09375 -2.890625l0 -7.640625l-12.0625 0z" fill-rule="nonzero"/><path fill="#ffff00" d="m250.72238 221.84526l-9.015625 0l-3.578125 -9.328125l-16.40625 0l-3.375 9.328125l-8.796875 0l15.984375 -41.03125l8.765625 0l16.421875 41.03125zm-15.25 -16.234375l-5.65625 -15.234375l-5.546875 15.234375l11.203125 0zm33.22867 -13.5l0 6.28125l-5.375 0l0 11.96875q0 3.640625 0.15625 4.25q0.15625 0.59375 0.6875 1.0q0.546875 0.390625 1.34375 0.390625q1.078125 0 3.15625 -0.765625l0.671875 6.109375q-2.75 1.171875 -6.21875 1.171875q-2.125 0 -3.828125 -0.703125q-1.703125 -0.71875 -2.515625 -1.84375q-0.796875 -1.140625 -1.09375 -3.078125q-0.25 -1.375 -0.25 -5.546875l0 -12.953125l-3.609375 0l0 -6.28125l3.609375 0l0 -5.90625l7.890625 -4.578125l0 10.484375l5.375 0zm19.090698 0l0 6.28125l-5.375 0l0 11.96875q0 3.640625 0.15625 4.25q0.15625 0.59375 0.6875 1.0q0.546875 0.390625 1.34375 0.390625q1.078125 0 3.15625 -0.765625l0.671875 6.109375q-2.75 1.171875 -6.21875 1.171875q-2.125 0 -3.828125 -0.703125q-1.703125 -0.71875 -2.515625 -1.84375q-0.796875 -1.140625 -1.09375 -3.078125q-0.25 -1.375 -0.25 -5.546875l0 -12.953125l-3.609375 0l0 -6.28125l3.609375 0l0 -5.90625l7.890625 -4.578125l0 10.484375l5.375 0zm11.340729 9.078125l-7.140625 -1.296875q1.203125 -4.296875 4.140625 -6.375q2.9375 -2.078125 8.734375 -2.078125q5.265625 0 7.828125 1.25q2.578125 1.25 3.625 3.171875q1.0625 1.90625 1.0625 7.03125l-0.09375 9.1875q0 3.921875 0.375 5.78125q0.390625 1.859375 1.421875 3.984375l-7.78125 0q-0.3125 -0.78125 -0.75 -2.328125q-0.203125 -0.6875 -0.28125 -0.921875q-2.015625 1.96875 -4.3125 2.953125q-2.296875 0.96875 -4.90625 0.96875q-4.59375 0 -7.234375 -2.484375q-2.640625 -2.5 -2.640625 -6.3125q0 -2.515625 1.203125 -4.484375q1.203125 -1.96875 3.375 -3.015625q2.171875 -1.0625 6.25 -1.84375q5.515625 -1.03125 7.640625 -1.9375l0 -0.78125q0 -2.265625 -1.125 -3.21875q-1.109375 -0.96875 -4.21875 -0.96875q-2.09375 0 -3.28125 0.828125q-1.171875 0.8125 -1.890625 2.890625zm10.515625 6.375q-1.515625 0.515625 -4.796875 1.21875q-3.265625 0.6875 -4.265625 1.359375q-1.546875 1.09375 -1.546875 2.78125q0 1.640625 1.234375 2.84375q1.234375 1.203125 3.140625 1.203125q2.125 0 4.046875 -1.390625q1.4375 -1.0625 1.875 -2.609375q0.3125 -1.0 0.3125 -3.828125l0 -1.578125zm41.398804 -6.65625l-7.75 1.40625q-0.390625 -2.328125 -1.78125 -3.5q-1.375 -1.1875 -3.59375 -1.1875q-2.9375 0 -4.6875 2.03125q-1.75 2.03125 -1.75 6.796875q0 5.28125 1.78125 7.46875q1.78125 2.1875 4.765625 2.1875q2.25 0 3.671875 -1.265625q1.421875 -1.28125 2.015625 -4.390625l7.71875 1.3125q-1.203125 5.3125 -4.625 8.03125q-3.40625 2.71875 -9.140625 2.71875q-6.515625 0 -10.40625 -4.109375q-3.875 -4.125 -3.875 -11.390625q0 -7.375 3.890625 -11.46875q3.890625 -4.109375 10.53125 -4.109375q5.421875 0 8.625 2.34375q3.21875 2.34375 4.609375 7.125zm5.6800537 20.9375l0 -41.03125l7.875 0l0 21.765625l9.203125 -10.46875l9.6875 0l-10.15625 10.875l10.890625 18.859375l-8.484375 0l-7.46875 -13.359375l-3.671875 3.84375l0 9.515625l-7.875 0zm49.38318 -9.46875l7.84375 1.328125q-1.515625 4.3125 -4.78125 6.5625q-3.25 2.25 -8.15625 2.25q-7.75 0 -11.46875 -5.0625q-2.953125 -4.0625 -2.953125 -10.25q0 -7.390625 3.859375 -11.578125q3.875 -4.1875 9.78125 -4.1875q6.625 0 10.453125 4.390625q3.84375 4.375 3.6875 13.421875l-19.71875 0q0.09375 3.5 1.90625 5.453125q1.828125 1.9375 4.53125 1.9375q1.859375 0 3.109375 -1.0q1.265625 -1.015625 1.90625 -3.265625zm0.453125 -7.9375q-0.09375 -3.421875 -1.78125 -5.1875q-1.671875 -1.78125 -4.078125 -1.78125q-2.5625 0 -4.25 1.875q-1.671875 1.875 -1.65625 5.09375l11.765625 0zm21.742554 17.40625l-7.859375 0l0 -29.734375l7.296875 0l0 4.234375q1.875 -3.0 3.375 -3.953125q1.5 -0.953125 3.40625 -0.953125q2.6875 0 5.171875 1.484375l-2.421875 6.859375q-2.0 -1.28125 -3.703125 -1.28125q-1.65625 0 -2.8125 0.90625q-1.140625 0.90625 -1.796875 3.296875q-0.65625 2.375 -0.65625 9.953125l0 9.1875z" fill-rule="nonzero"/><path fill="#ffff00" d="m462.512 210.72026l-3.390625 1.578125l-2.25 -5.734375q8.765625 -3.40625 12.125 -6.234375q-1.28125 -1.140625 -2.46875 -2.453125q-1.875 2.046875 -6.140625 4.875l-2.875 -5.4375q8.046875 -4.703125 10.1875 -12.53125l4.578125 0.8125q3.984375 0.546875 0.328125 2.84375l-0.359375 0.71875l5.796875 0l0.984375 -0.96875l4.140625 3.296875q1.15625 2.359375 -1.125 2.359375q-1.8125 3.015625 -4.984375 6.203125q2.453125 1.96875 10.828125 4.6875l-2.515625 6.25q-9.234375 -4.734375 -12.078125 -7.015625q-3.109375 2.734375 -3.875 3.109375l12.125 0l0 17.90625l-5.59375 0l0 -1.125l-7.84375 0l0 2.234375l-5.59375 0l0 -15.375zm23.96875 6.421875l0 -31.5625l6.9375 0l1.0625 -3.8125l-8.90625 0l0 -6.046875l24.859375 0l0 6.046875l-9.71875 0l-1.6875 3.8125l9.609375 0l0 31.5625l-22.15625 0zm23.5 10.0625q-6.0 -2.09375 -12.28125 -6.546875l4.046875 -4.671875q5.484375 3.484375 11.3124695 5.328125l-3.0780945 5.890625zm-37.25 -30.5q1.1875 -1.171875 2.453125 -3.078125l-5.03125 0l-0.25 0.375q1.5 1.65625 2.828125 2.703125zm8.6875 24.28125q7.140625 -1.53125 11.703125 -4.828125l3.453125 4.25q2.671875 3.71875 -1.6875 2.40625q-3.78125 2.3125 -10.703125 4.625l-2.765625 -6.453125zm-5.703125 -41.0l9.640625 0l0 9.609375l-5.59375 0l0 -4.25l-14.5625 0l0 5.828125l-5.59375 0l0 -11.1875l9.859375 0l0 -5.828125l5.1875 0q4.140625 0.5 1.0625 2.6875l0 3.140625zm16.34375 28.421875l0 3.375l10.984375 0l0 -3.375l-10.984375 0zm0 -8.734375l0 3.375l10.984375 0l0 -3.375l-10.984375 0zm0 -8.734375l0 3.375l10.984375 0l0 -3.375l-10.984375 0zm-16.109375 21.5l-7.84375 0l0 6.0625l7.84375 0l0 -6.0625zm43.265594 7.375q8.0 -5.078125 13.15625 -14.34375q-3.890625 -3.5 -5.84375 -4.703125q-1.234375 2.96875 -4.546875 6.828125l-5.453125 -3.9375q7.828125 -9.734375 10.1875 -25.9375l5.859375 1.671875q2.40625 1.9375 -0.09375 3.015625l-0.578125 2.71875l7.046875 0l1.21875 -1.203125l3.78125 3.234375q1.5 1.5 -0.21875 2.546875q-3.359375 23.703125 -20.515625 35.625l-4.0 -5.515625zm46.5 -7.9375q-7.265625 -5.0 -8.9375 -6.5625l0 20.5625l-6.265625 0l0 -26.78125q-4.09375 -5.1875 -7.890625 -11.734375l5.03125 -3.78125q2.484375 4.421875 2.859375 4.921875l0 -13.671875l5.1875 0q4.125 0.5 1.078125 2.6875l0 18.59375q1.34375 2.703125 13.40625 9.796875l-4.46875 5.96875zm-30.8125 -12.5625q1.53125 -3.90625 2.25 -8.140625l-6.84375 0l-1.328125 3.65625q2.359375 1.4375 5.921875 4.484375zm91.0625 26.90625q-20.359375 -4.71875 -26.578125 -20.5l-5.453125 0l0 12.828125l12.328125 -2.203125l1.296875 5.515625l-23.328125 4.765625q-0.359375 2.953125 -2.734375 0.625l-1.90625 -6.578125l8.09375 -1.15625l0 -13.796875l-10.75 0l0 -6.03125l10.75 0l0 -24.1875l34.015625 0l0 6.03125l-27.765625 0l0 1.578125l24.640625 0l0 6.046875l-24.640625 0l0 2.015625l25.078125 0l0 6.03125l-25.078125 0l0 2.484375l34.484375 0l0 6.03125l-22.5625 0q0.703125 1.5 3.609375 4.421875l7.0625 -5.53125l4.359375 3.078125q3.8125 2.734375 -0.921875 2.734375l-5.640625 3.828125q3.28125 2.296875 15.203125 5.46875l-3.5625 6.5zm19.96875 -46.6875q4.140625 0.5 1.0625 2.6875l0 10.75l11.4375 0l0 -17.921875l5.203125 0q4.125 0.53125 1.046875 2.703125l0 15.21875l11.21875 0l0 -13.21875l5.203125 0q4.125 0.53125 1.046875 2.703125l0 18.5625l-6.25 0l0 -2.015625l-11.21875 0l0 17.484375l13.0 0l0 -13.671875l5.21875 0q4.078125 0.53125 1.046875 2.6875l0 19.484375l-6.265625 0l0 -2.46875l-32.921875 0l0 3.140625l-6.265625 0l0 -23.0625l5.203125 0q4.09375 0.5 1.0625 2.6875l0 11.203125l13.671875 0l0 -17.484375l-11.4375 0l0 2.46875l-6.25 0l0 -21.9375l5.1875 0zm76.53125 10.921875q6.828125 -4.890625 8.265625 -6.234375l-31.546875 0l0 -6.03125l37.46875 0l1.265625 -1.25l4.984375 4.96875q1.171875 2.3125 -1.515625 2.3125q-6.0625 5.65625 -16.6875 12.15625l0 25.03125q0 4.015625 -4.03125 4.015625l-7.6875 0l-1.203125 -6.703125l5.984375 0q0 0 0 0l0 -29.046875l4.703125 0.78125z" fill-rule="nonzero"/><path fill="#ff9900" d="m239.25388 283.33276q-1.234375 1.109375 -2.4375 1.78125l0 3.859375l8.96875 -1.109375l0 5.140625q-8.859375 1.21875 -16.046875 1.828125q-0.8125 4.15625 -3.15625 -0.515625l-1.1875 -4.515625l5.84375 -0.234375l0 -1.734375q-2.375 1.203125 -8.15625 2.765625l-2.015625 -5.03125q11.078125 -2.890625 13.328125 -4.78125l-11.4375 0l0 -4.46875l8.953125 0l0 -1.34375l-5.59375 0l0 -4.46875l5.59375 0l0 -1.140625l-7.171875 0l0 -4.46875l7.171875 0l0 -1.34375l-2.25 0l-3.796875 0l0 -10.296875l13.421875 0l0 10.296875l-1.796875 0l0 1.34375l4.71875 0l0.21875 -1.5625l0 0.21875l-1.5625 0l0 -10.296875l13.875 0l0 10.296875l-6.9375 0l0 1.34375l7.609375 0l0 4.46875l-7.609375 0l0 1.140625l6.046875 0l0 4.46875l-6.046875 0l0 1.34375l10.296875 0l0 4.46875l-14.234375 0q0.84375 1.6875 1.9375 2.640625l4.828125 -3.953125l3.890625 2.34375q4.46875 2.5625 -1.078125 2.5625l-3.609375 2.28125q2.84375 2.0625 9.046875 3.859375l-2.3125 5.25q-12.96875 -4.15625 -17.3125 -12.4375zm4.0625 -35.671875l13.4375 0l0 5.359375l-33.359375 0l0 -5.359375l13.65625 0l0 -5.15625l5.21875 0q4.078125 0.53125 1.046875 2.6875l0 2.46875zm-35.59375 2.453125l0 -6.03125l14.09375 0l0 6.03125l-14.09375 0zm-2.6875 7.609375l0 -6.03125l18.796875 0l0 6.03125l-18.796875 0zm2.6875 8.0625l0 -6.03125l14.328125 0l0 6.03125l-14.328125 0zm0 8.0625l0 -6.03125l14.328125 0l0 6.03125l-14.328125 0zm9.1875 13.671875l0 -6.28125l-4.5 0l0 6.28125l4.5 0zm5.578125 -11.640625l0 19.015625l-5.578125 0l0 -2.015625l-4.5 0l0 2.921875l-5.578125 0l0 -19.921875l15.65625 0zm15.0 -6.515625l0 1.140625l4.71875 0l0 -1.140625l-4.71875 0zm12.328125 -11.640625l-4.03125 0l0 1.359375l4.03125 0l0 -1.359375zm-19.03125 0l0 1.359375l3.578125 0l0 -1.359375l-3.578125 0zm11.421875 17.25l-4.71875 0l0 1.34375l4.71875 0l0 -1.34375z" fill-rule="nonzero"/><path fill="#ff9900" d="m301.07208 290.64526l0 -4.453125q-1.625 2.375 -4.28125 3.75q-2.640625 1.375 -5.578125 1.375q-3.0 0 -5.375 -1.3125q-2.375 -1.3125 -3.4375 -3.6875q-1.0625 -2.390625 -1.0625 -6.59375l0 -18.8125l7.859375 0l0 13.671875q0 6.265625 0.4375 7.6875q0.4375 1.40625 1.578125 2.234375q1.140625 0.828125 2.90625 0.828125q2.015625 0 3.609375 -1.109375q1.609375 -1.109375 2.1875 -2.75q0.59375 -1.640625 0.59375 -8.015625l0 -12.546875l7.859375 0l0 29.734375l-7.296875 0zm42.48706 0l-7.859375 0l0 -15.171875q0 -4.8125 -0.515625 -6.21875q-0.5 -1.421875 -1.640625 -2.203125q-1.125 -0.78125 -2.71875 -0.78125q-2.046875 0 -3.671875 1.125q-1.625 1.109375 -2.234375 2.953125q-0.59375 1.84375 -0.59375 6.828125l0 13.46875l-7.859375 0l0 -29.734375l7.296875 0l0 4.375q3.890625 -5.046875 9.796875 -5.046875q2.609375 0 4.765625 0.9375q2.15625 0.9375 3.25 2.40625q1.109375 1.453125 1.546875 3.296875q0.4375 1.84375 0.4375 5.296875l0 18.46875zm35.23706 0l-7.296875 0l0 -4.359375q-1.828125 2.546875 -4.3125 3.796875q-2.46875 1.234375 -4.984375 1.234375q-5.125 0 -8.78125 -4.125q-3.65625 -4.125 -3.65625 -11.515625q0 -7.5625 3.5625 -11.5q3.5625 -3.9375 8.984375 -3.9375q4.984375 0 8.625 4.15625l0 -14.78125l7.859375 0l0 41.03125zm-20.984375 -15.5q0 4.75 1.3125 6.875q1.90625 3.078125 5.3125 3.078125q2.71875 0 4.625 -2.296875q1.90625 -2.3125 1.90625 -6.90625q0 -5.125 -1.859375 -7.375q-1.84375 -2.25 -4.71875 -2.25q-2.796875 0 -4.6875 2.21875q-1.890625 2.21875 -1.890625 6.65625zm28.73706 -18.265625l0 -7.265625l7.875 0l0 7.265625l-7.875 0zm0 33.765625l0 -29.734375l7.875 0l0 29.734375l-7.875 0zm41.849487 -20.9375l-7.75 1.40625q-0.390625 -2.328125 -1.78125 -3.5q-1.375 -1.1875 -3.59375 -1.1875q-2.9375 0 -4.6875 2.03125q-1.75 2.03125 -1.75 6.796875q0 5.28125 1.78125 7.46875q1.78125 2.1875 4.765625 2.1875q2.25 0 3.671875 -1.265625q1.421875 -1.28125 2.015625 -4.390625l7.71875 1.3125q-1.203125 5.3125 -4.625 8.03125q-3.40625 2.71875 -9.140625 2.71875q-6.515625 0 -10.40625 -4.109375q-3.875 -4.125 -3.875 -11.390625q0 -7.375 3.890625 -11.46875q3.890625 -4.109375 10.53125 -4.109375q5.421875 0 8.625 2.34375q3.21875 2.34375 4.609375 7.125zm5.9613037 -12.828125l0 -7.265625l7.875 0l0 7.265625l-7.875 0zm0 33.765625l0 -29.734375l7.875 0l0 29.734375l-7.875 0z" fill-rule="nonzero"/><path fill="#ff9900" d="m486.27737 273.4109l10.765625 0l0 -10.09375l-10.765625 0l0 10.09375zm10.765625 8.28125l0 -2.25l-10.765625 0l0 2.46875l-6.25 0l0 -24.625l23.265625 0l0 24.40625l-6.25 0zm-22.625 4.484375l34.265625 0l0 -34.71875l-34.265625 0l0 34.71875zm34.265625 8.046875l0 -2.015625l-34.265625 0l0 3.140625l-6.265625 0l0 -49.921875l46.796844 0l0 48.796875l-6.2655945 0zm13.6093445 -27.09375q9.046875 -10.890625 10.9375 -24.515625l5.15625 0.8125q4.296875 0.84375 0.625 3.421875q-1.5 6.0 -3.25 10.484375q3.46875 1.90625 0.453125 3.03125l0 35.65625l-6.265625 0l0 -27.78125q-0.625 1.0 -3.390625 4.0625l-4.265625 -5.171875zm19.078125 4.921875l0 -19.015625l11.640625 0l0 -0.453125l-14.78125 0l0 -5.375l14.78125 0l0 -4.703125l5.203125 0q4.109375 0.53125 1.0625 2.6875l0 2.015625l16.5625 0l0 5.375l-16.5625 0l0 0.453125l12.3125 0l0 18.125l-1.390625 0q1.25 0.859375 6.0 4.75l-4.65625 3.328125l-2.9375 -2.453125l-1.9375 0.140625l0 2.3125l10.96875 0l0 5.359375l-10.96875 0l0 6.28125q0 4.921875 -4.25 4.921875l-5.65625 0l-1.265625 -6.046875l5.125 0q0 0.21875 -0.21875 0.21875l0 -5.375l-9.40625 0q0.875 0.734375 3.921875 4.875l-5.21875 4.0q-2.71875 -3.5625 -6.546875 -7.109375l2.078125 -1.765625l-8.5625 0l0 -5.359375l23.734375 0l0 -1.984375l-18.140625 0.828125q-2.5 3.21875 -3.34375 -0.921875l-0.875 -4.640625l14.96875 0l0 -1.359375l-6.046875 0l0 0.890625l-5.59375 0zm17.90625 -13.65625l0 0.90625l6.71875 0l0 -0.90625l-6.71875 0zm-12.3125 0l0 0.90625l6.046875 0l0 -0.90625l-6.046875 0zm12.3125 6.265625l0 1.140625l6.71875 0l0 -1.140625l-6.71875 0zm0 6.5l0 1.125l3.75 0l-1.484375 -1.0625l1.515625 -0.359375l-3.78125 0.296875zm-6.265625 -6.5l-6.046875 0l0 1.140625l6.046875 0l0 -1.140625zm58.4375 -5.40625q6.828125 -4.890625 8.265625 -6.234375l-31.546875 0l0 -6.03125l37.46875 0l1.265625 -1.25l4.984375 4.96875q1.171875 2.3125 -1.515625 2.3125q-6.0625 5.65625 -16.6875 12.15625l0 25.03125q0 4.015625 -4.03125 4.015625l-7.6875 0l-1.203125 -6.703125l5.984375 0q0 0 0 0l0 -29.046875l4.703125 0.78125zm81.5 4.96875l0 6.71875l-49.03125 0l0 -6.71875l49.03125 0zm53.296875 29.78125l0 -1.5625l-23.96875 0l0 2.453125l-5.59375 0l0 -49.703125l35.140625 0l0 48.8125l-5.578125 0zm-32.265625 1.125l-6.25 0l0 -25.109375q-0.1875 0.328125 -3.4375 3.875l-3.984375 -5.21875q7.90625 -9.3125 10.734375 -26.71875l5.890625 2.25q2.34375 2.296875 -0.390625 2.671875q-0.796875 4.578125 -2.921875 10.953125q4.109375 0.328125 0.359375 2.84375l0 34.453125zm16.34375 -23.75l0 5.390625l8.296875 0l0 -5.390625l-8.296875 0zm-8.046875 -20.140625l0 35.15625l23.96875 0l0 -35.15625l-23.96875 0zm15.0 5.609375l8.5 0l0 6.03125l-8.5 0l0 3.140625l6.9375 0l0 17.90625l-5.59375 0l0 -1.796875l-8.296875 0l0 2.6875l-5.578125 0l0 -18.796875l6.265625 0l0 -3.140625l-8.28125 0l0 -6.03125l8.28125 0l0 -5.828125l5.1875 0q4.125 0.5 1.078125 2.6875l0 3.140625z" fill-rule="nonzero"/><path fill="#ff9900" d="m59.927185 318.41403l0 15.078125q3.8125 -4.453125 9.09375 -4.453125q2.71875 0 4.890625 1.015625q2.1875 1.0 3.296875 2.578125q1.109375 1.5625 1.515625 3.46875q0.40625 1.90625 0.40625 5.90625l0 17.4375l-7.859375 0l0 -15.703125q0 -4.671875 -0.453125 -5.921875q-0.453125 -1.265625 -1.59375 -2.0q-1.125 -0.75 -2.828125 -0.75q-1.96875 0 -3.515625 0.953125q-1.53125 0.9375 -2.25 2.859375q-0.703125 1.921875 -0.703125 5.671875l0 14.890625l-7.859375 0l0 -41.03125l7.859375 0zm44.39331 31.5625l7.84375 1.328125q-1.515625 4.3125 -4.78125 6.5625q-3.25 2.25 -8.15625 2.25q-7.75 0 -11.46875 -5.0625q-2.953125 -4.0625 -2.953125 -10.25q0 -7.390625 3.859375 -11.578125q3.875 -4.1875 9.78125 -4.1875q6.625 0 10.453125 4.390625q3.84375 4.375 3.6875 13.421875l-19.71875 0q0.09375 3.5 1.90625 5.453125q1.828125 1.9375 4.53125 1.9375q1.859375 0 3.109375 -1.0q1.265625 -1.015625 1.90625 -3.265625zm0.453125 -7.9375q-0.09375 -3.421875 -1.78125 -5.1875q-1.671875 -1.78125 -4.078125 -1.78125q-2.5625 0 -4.25 1.875q-1.671875 1.875 -1.65625 5.09375l11.765625 0zm20.101929 -3.25l-7.140625 -1.296875q1.203125 -4.296875 4.140625 -6.375q2.9375 -2.078125 8.734375 -2.078125q5.265625 0 7.828125 1.25q2.578125 1.25 3.625 3.171875q1.0625 1.90625 1.0625 7.03125l-0.09375 9.1875q0 3.921875 0.375 5.78125q0.390625 1.859375 1.421875 3.984375l-7.78125 0q-0.3125 -0.78125 -0.75 -2.328125q-0.203125 -0.6875 -0.28125 -0.921875q-2.015625 1.96875 -4.3125 2.953125q-2.296875 0.96875 -4.90625 0.96875q-4.59375 0 -7.234375 -2.484375q-2.640625 -2.5 -2.640625 -6.3125q0 -2.515625 1.203125 -4.484375q1.203125 -1.96875 3.375 -3.015625q2.171875 -1.0625 6.25 -1.84375q5.515625 -1.03125 7.640625 -1.9375l0 -0.78125q0 -2.265625 -1.125 -3.21875q-1.109375 -0.96875 -4.21875 -0.96875q-2.09375 0 -3.28125 0.828125q-1.171875 0.8125 -1.890625 2.890625zm10.515625 6.375q-1.515625 0.515625 -4.796875 1.21875q-3.265625 0.6875 -4.265625 1.359375q-1.546875 1.09375 -1.546875 2.78125q0 1.640625 1.234375 2.84375q1.234375 1.203125 3.140625 1.203125q2.125 0 4.046875 -1.390625q1.4375 -1.0625 1.875 -2.609375q0.3125 -1.0 0.3125 -3.828125l0 -1.578125zm42.742554 14.28125l-7.296875 0l0 -4.359375q-1.828125 2.546875 -4.3125 3.796875q-2.46875 1.234375 -4.984375 1.234375q-5.125 0 -8.78125 -4.125q-3.65625 -4.125 -3.65625 -11.515625q0 -7.5625 3.5625 -11.5q3.5625 -3.9375 8.984375 -3.9375q4.984375 0 8.625 4.15625l0 -14.78125l7.859375 0l0 41.03125zm-20.984375 -15.5q0 4.75 1.3125 6.875q1.90625 3.078125 5.3125 3.078125q2.71875 0 4.625 -2.296875q1.90625 -2.3125 1.90625 -6.90625q0 -5.125 -1.859375 -7.375q-1.84375 -2.25 -4.71875 -2.25q-2.796875 0 -4.6875 2.21875q-1.890625 2.21875 -1.890625 6.65625zm45.95581 6.03125l7.84375 1.328125q-1.515625 4.3125 -4.78125 6.5625q-3.25 2.25 -8.15625 2.25q-7.75 0 -11.46875 -5.0625q-2.953125 -4.0625 -2.953125 -10.25q0 -7.390625 3.859375 -11.578125q3.875 -4.1875 9.78125 -4.1875q6.625 0 10.453125 4.390625q3.84375 4.375 3.6875 13.421875l-19.71875 0q0.09375 3.5 1.90625 5.453125q1.828125 1.9375 4.53125 1.9375q1.859375 0 3.109375 -1.0q1.265625 -1.015625 1.90625 -3.265625zm0.453125 -7.9375q-0.09375 -3.421875 -1.78125 -5.1875q-1.671875 -1.78125 -4.078125 -1.78125q-2.5625 0 -4.25 1.875q-1.671875 1.875 -1.65625 5.09375l11.765625 0zm21.742554 17.40625l-7.859375 0l0 -29.734375l7.296875 0l0 4.234375q1.875 -3.0 3.375 -3.953125q1.5 -0.953125 3.40625 -0.953125q2.6875 0 5.171875 1.484375l-2.421875 6.859375q-2.0 -1.28125 -3.703125 -1.28125q-1.65625 0 -2.8125 0.90625q-1.140625 0.90625 -1.796875 3.296875q-0.65625 2.375 -0.65625 9.953125l0 9.1875zm10.59108 0.703125l10.15625 -42.4375l5.90625 0l-10.28125 42.4375l-5.78125 0zm19.786972 -0.703125l0 -41.03125l7.859375 0l0 14.78125q3.640625 -4.15625 8.625 -4.15625q5.4375 0 8.984375 3.9375q3.5625 3.9375 3.5625 11.296875q0 7.609375 -3.625 11.734375q-3.625 4.109375 -8.8125 4.109375q-2.546875 0 -5.03125 -1.265625q-2.46875 -1.28125 -4.265625 -3.765625l0 4.359375l-7.296875 0zm7.8125 -15.5q0 4.609375 1.453125 6.828125q2.046875 3.125 5.421875 3.125q2.609375 0 4.4375 -2.21875q1.84375 -2.234375 1.84375 -7.015625q0 -5.09375 -1.859375 -7.34375q-1.84375 -2.25 -4.71875 -2.25q-2.828125 0 -4.703125 2.203125q-1.875 2.1875 -1.875 6.671875zm25.721436 0.21875q0 -3.921875 1.921875 -7.578125q1.9375 -3.671875 5.46875 -5.609375q3.546875 -1.9375 7.921875 -1.9375q6.75 0 11.046875 4.390625q4.3125 4.375 4.3125 11.0625q0 6.75 -4.359375 11.1875q-4.34375 4.4375 -10.953125 4.4375q-4.078125 0 -7.796875 -1.84375q-3.703125 -1.84375 -5.640625 -5.40625q-1.921875 -3.578125 -1.921875 -8.703125zm8.0625 0.421875q0 4.421875 2.09375 6.78125q2.109375 2.34375 5.1875 2.34375q3.078125 0 5.15625 -2.34375q2.09375 -2.359375 2.09375 -6.84375q0 -4.359375 -2.09375 -6.703125q-2.078125 -2.359375 -5.15625 -2.359375q-3.078125 0 -5.1875 2.359375q-2.09375 2.34375 -2.09375 6.765625zm56.033936 14.859375l-7.296875 0l0 -4.359375q-1.828125 2.546875 -4.3125 3.796875q-2.46875 1.234375 -4.984375 1.234375q-5.125 0 -8.78125 -4.125q-3.65625 -4.125 -3.65625 -11.515625q0 -7.5625 3.5625 -11.5q3.5625 -3.9375 8.984375 -3.9375q4.984375 0 8.625 4.15625l0 -14.78125l7.859375 0l0 41.03125zm-20.984375 -15.5q0 4.75 1.3125 6.875q1.90625 3.078125 5.3125 3.078125q2.71875 0 4.625 -2.296875q1.90625 -2.3125 1.90625 -6.90625q0 -5.125 -1.859375 -7.375q-1.84375 -2.25 -4.71875 -2.25q-2.796875 0 -4.6875 2.21875q-1.890625 2.21875 -1.890625 6.65625zm25.01831 -14.234375l8.375 0l7.109375 21.109375l6.9375 -21.109375l8.140625 0l-10.484375 28.609375l-1.875 5.1875q-1.046875 2.59375 -1.984375 3.96875q-0.9375 1.375 -2.15625 2.21875q-1.21875 0.859375 -3.0 1.328125q-1.765625 0.484375 -4.0 0.484375q-2.28125 0 -4.453125 -0.46875l-0.703125 -6.15625q1.84375 0.359375 3.328125 0.359375q2.75 0 4.0625 -1.609375q1.3125 -1.609375 2.015625 -4.109375l-11.3125 -29.8125z" fill-rule="nonzero"/><path fill="#ff9900" d="m455.12274 349.3359q-7.953125 -8.890625 -16.984375 -14.265625l4.21875 -5.40625q9.53125 4.875 18.03125 14.125l-5.265625 5.546875zm-44.984375 -33.546875l48.8125 0l0 6.703125l-19.71875 0q-0.5 1.703125 -1.78125 4.046875l0 36.9375l-6.9375 0l0 -27.0q-6.15625 7.796875 -18.71875 13.34375l-4.078125 -6.6875q17.21875 -7.21875 23.828125 -20.640625l-21.40625 0l0 -6.703125zm107.25 17.234375l0 6.71875l-49.03125 0l0 -6.71875l49.03125 0zm44.1875 -4.484375q1.015625 10.078125 3.296875 15.109375q3.140625 -6.8125 3.515625 -15.109375l-6.8125 0zm-12.4375 7.65625q7.6875 -9.5625 9.09375 -25.0l6.375 0.828125q2.34375 2.390625 -0.328125 2.765625q-0.8125 4.578125 -1.796875 7.71875l16.03125 0l0 6.03125l-3.8125 0q0 10.09375 -5.828125 20.671875q3.453125 3.453125 11.78125 7.625l-3.8125 6.46875q-6.9375 -3.578125 -11.75 -8.796875q-5.3125 6.140625 -15.859375 10.3125l-3.59375 -6.296875q10.859375 -3.875 15.46875 -9.28125q-3.171875 -6.34375 -3.765625 -12.703125q-0.25 0.5625 -3.921875 4.53125l-4.28125 -4.875zm4.296875 -21.75l0 6.03125l-11.484375 0q-2.03125 5.09375 -3.921875 8.546875l6.203125 -0.734375l-3.03125 -4.234375l4.796875 -3.1875q4.578125 5.59375 8.203125 11.296875l-5.296875 3.4375l-1.28125 -2.0625l-4.265625 0.703125l0 5.953125l8.5 0l0 6.03125l-8.5 0l0 5.8125l9.390625 -2.421875l1.296875 5.53125l-22.65625 6.34375q-0.375 2.765625 -2.6875 0.453125l-2.203125 -6.0625l10.59375 -2.296875l0 -7.359375l-8.0625 0l0 -6.03125l8.0625 0l0 -5.0625l-6.609375 0.71875q-0.390625 2.625 -2.703125 0.328125l-1.703125 -6.21875l5.09375 -0.265625q2.421875 -4.640625 4.0 -9.21875l-7.703125 0l0 -6.03125l25.96875 0zm65.328125 13.203125q-2.078125 5.828125 -7.796875 12.34375l-4.546875 -5.453125q7.96875 -7.984375 10.09375 -22.859375l5.765625 1.9375q4.609375 2.03125 0.1875 2.9375q-0.5625 2.578125 -1.328125 5.0625l15.84375 0l-1.15625 31.375q-0.234375 9.8125 -8.0625 9.8125l-7.03125 0l-0.953125 -6.03125l6.875 0q2.28125 0 2.46875 -3.1875l1.078125 -25.9375l-11.4375 0zm1.953125 21.34375q-3.703125 -5.3125 -8.09375 -9.4375l5.015625 -5.3125q5.203125 4.6875 8.375 9.15625l-5.296875 5.59375zm-26.96875 -27.375q1.140625 -3.59375 2.453125 -10.171875l6.546875 2.453125q2.265625 2.28125 -0.4375 2.6875q-0.5625 2.40625 -1.796875 5.03125l7.765625 0l0 38.71875l-6.25 0l0 -2.6875l-8.078125 0l0 4.484375l-6.265625 0l0 -40.515625l6.0625 0zm8.28125 6.03125l-8.078125 0l0 8.0625l8.078125 0l0 -8.0625zm0 14.109375l-8.078125 0l0 9.859375l8.078125 0l0 -9.859375z" fill-rule="nonzero"/><path fill="#ff9900" d="m668.7691 359.44528l-7.859375 0l0 -29.734375l7.296875 0l0 4.234375q1.875 -3.0 3.375 -3.953125q1.5 -0.953125 3.40625 -0.953125q2.6875 0 5.171875 1.484375l-2.421875 6.859375q-2.0 -1.28125 -3.703125 -1.28125q-1.65625 0 -2.8125 0.90625q-1.140625 0.90625 -1.796875 3.296875q-0.65625 2.375 -0.65625 9.953125l0 9.1875zm31.997314 -9.46875l7.84375 1.328125q-1.515625 4.3125 -4.78125 6.5625q-3.25 2.25 -8.15625 2.25q-7.75 0 -11.46875 -5.0625q-2.953125 -4.0625 -2.953125 -10.25q0 -7.390625 3.859375 -11.578125q3.875 -4.1875 9.78125 -4.1875q6.625 0 10.453125 4.390625q3.84375 4.375 3.6875 13.421875l-19.71875 0q0.09375 3.5 1.90625 5.453125q1.828125 1.9375 4.53125 1.9375q1.859375 0 3.109375 -1.0q1.265625 -1.015625 1.90625 -3.265625zm0.453125 -7.9375q-0.09375 -3.421875 -1.78125 -5.1875q-1.671875 -1.78125 -4.078125 -1.78125q-2.5625 0 -4.25 1.875q-1.671875 1.875 -1.65625 5.09375l11.765625 0zm11.445679 8.921875l7.890625 -1.203125q0.5 2.296875 2.046875 3.484375q1.546875 1.1875 4.3125 1.1875q3.046875 0 4.59375 -1.109375q1.03125 -0.796875 1.03125 -2.109375q0 -0.890625 -0.5625 -1.484375q-0.578125 -0.546875 -2.625 -1.03125q-9.515625 -2.09375 -12.0625 -3.828125q-3.53125 -2.40625 -3.53125 -6.703125q0 -3.859375 3.046875 -6.484375q3.046875 -2.640625 9.46875 -2.640625q6.09375 0 9.0625 2.0q2.96875 1.984375 4.09375 5.875l-7.421875 1.375q-0.484375 -1.734375 -1.8125 -2.65625q-1.328125 -0.9375 -3.78125 -0.9375q-3.109375 0 -4.453125 0.875q-0.90625 0.609375 -0.90625 1.59375q0 0.84375 0.796875 1.421875q1.0625 0.78125 7.34375 2.21875q6.28125 1.421875 8.78125 3.5q2.453125 2.09375 2.453125 5.84375q0 4.09375 -3.421875 7.03125q-3.40625 2.9375 -10.09375 2.9375q-6.078125 0 -9.625 -2.453125q-3.53125 -2.46875 -4.625 -6.703125zm34.430054 -21.25l7.328125 0l0 4.375q1.4375 -2.234375 3.859375 -3.640625q2.4375 -1.40625 5.40625 -1.40625q5.1875 0 8.796875 4.0625q3.609375 4.0625 3.609375 11.3125q0 7.453125 -3.640625 11.578125q-3.640625 4.125 -8.8125 4.125q-2.46875 0 -4.46875 -0.96875q-2.0 -0.984375 -4.21875 -3.375l0 14.984375l-7.859375 0l0 -41.046875zm7.78125 14.359375q0 5.015625 1.984375 7.40625q1.984375 2.390625 4.84375 2.390625q2.75 0 4.5625 -2.1875q1.828125 -2.203125 1.828125 -7.203125q0 -4.6875 -1.875 -6.953125q-1.875 -2.265625 -4.65625 -2.265625q-2.875 0 -4.78125 2.234375q-1.90625 2.21875 -1.90625 6.578125zm25.64331 0.09375q0 -3.921875 1.921875 -7.578125q1.9375 -3.671875 5.46875 -5.609375q3.546875 -1.9375 7.921875 -1.9375q6.75 0 11.046875 4.390625q4.3125 4.375 4.3125 11.0625q0 6.75 -4.359375 11.1875q-4.34375 4.4375 -10.953125 4.4375q-4.078125 0 -7.796875 -1.84375q-3.703125 -1.84375 -5.640625 -5.40625q-1.921875 -3.578125 -1.921875 -8.703125zm8.0625 0.421875q0 4.421875 2.09375 6.78125q2.109375 2.34375 5.1875 2.34375q3.078125 0 5.15625 -2.34375q2.09375 -2.359375 2.09375 -6.84375q0 -4.359375 -2.09375 -6.703125q-2.078125 -2.359375 -5.15625 -2.359375q-3.078125 0 -5.1875 2.359375q-2.09375 2.34375 -2.09375 6.765625zm55.815186 14.859375l-7.859375 0l0 -15.171875q0 -4.8125 -0.515625 -6.21875q-0.5 -1.421875 -1.640625 -2.203125q-1.125 -0.78125 -2.71875 -0.78125q-2.046875 0 -3.671875 1.125q-1.625 1.109375 -2.234375 2.953125q-0.59375 1.84375 -0.59375 6.828125l0 13.46875l-7.859375 0l0 -29.734375l7.296875 0l0 4.375q3.890625 -5.046875 9.796875 -5.046875q2.609375 0 4.765625 0.9375q2.15625 0.9375 3.25 2.40625q1.109375 1.453125 1.546875 3.296875q0.4375 1.84375 0.4375 5.296875l0 18.46875zm5.2058105 -8.484375l7.890625 -1.203125q0.5 2.296875 2.046875 3.484375q1.546875 1.1875 4.3125 1.1875q3.046875 0 4.59375 -1.109375q1.03125 -0.796875 1.03125 -2.109375q0 -0.890625 -0.5625 -1.484375q-0.578125 -0.546875 -2.625 -1.03125q-9.515625 -2.09375 -12.0625 -3.828125q-3.53125 -2.40625 -3.53125 -6.703125q0 -3.859375 3.046875 -6.484375q3.046875 -2.640625 9.46875 -2.640625q6.09375 0 9.0625 2.0q2.96875 1.984375 4.09375 5.875l-7.421875 1.375q-0.484375 -1.734375 -1.8125 -2.65625q-1.328125 -0.9375 -3.78125 -0.9375q-3.109375 0 -4.453125 0.875q-0.90625 0.609375 -0.90625 1.59375q0 0.84375 0.796875 1.421875q1.0625 0.78125 7.34375 2.21875q6.28125 1.421875 8.78125 3.5q2.453125 2.09375 2.453125 5.84375q0 4.09375 -3.421875 7.03125q-3.40625 2.9375 -10.09375 2.9375q-6.078125 0 -9.625 -2.453125q-3.53125 -2.46875 -4.625 -6.703125zm51.867554 -0.984375l7.84375 1.328125q-1.515625 4.3125 -4.78125 6.5625q-3.25 2.25 -8.15625 2.25q-7.75 0 -11.46875 -5.0625q-2.953125 -4.0625 -2.953125 -10.25q0 -7.390625 3.859375 -11.578125q3.875 -4.1875 9.78125 -4.1875q6.625 0 10.453125 4.390625q3.84375 4.375 3.6875 13.421875l-19.71875 0q0.09375 3.5 1.90625 5.453125q1.828125 1.9375 4.53125 1.9375q1.859375 0 3.109375 -1.0q1.265625 -1.015625 1.90625 -3.265625zm0.453125 -7.9375q-0.09375 -3.421875 -1.78125 -5.1875q-1.671875 -1.78125 -4.078125 -1.78125q-2.5625 0 -4.25 1.875q-1.671875 1.875 -1.65625 5.09375l11.765625 0z" fill-rule="nonzero"/><path fill="#ffff00" d="m350.1328 407.65152l0 13.78125q4.21875 4.8125 13.21875 4.8125l25.53125 0l-2.546875 6.03125l-22.984375 0q-10.6875 0 -16.359375 -6.09375l-5.453125 5.65625q-1.078125 4.265625 -3.59375 0.90625l-2.609375 -5.234375l8.53125 -5.78125l0 -8.046875l-8.5 0l0 -6.03125l14.765625 0zm-10.390625 -15.265625q3.921875 1.953125 10.234375 6.515625l-3.375 5.546875q-5.6875 -4.109375 -10.25 -6.796875l3.390625 -5.265625zm2.03125 -11.65625q4.125 2.203125 10.0 6.546875l-3.671875 5.8125q-5.203125 -4.40625 -9.734375 -7.09375l3.40625 -5.265625zm44.40625 8.34375l0 6.03125l-36.265625 0l0 -6.03125l36.265625 0zm-5.140625 -6.71875l0 5.359375l-26.1875 0l0 -5.359375l26.1875 0zm0.21875 14.109375l0 5.359375l-26.1875 0l0 -5.359375l26.1875 0zm-0.21875 7.15625l0 5.359375l-25.96875 0l0 -5.359375l25.96875 0zm1.5625 7.171875l0 15.21875l-6.265625 0l0 -1.5625l0.21875 0l-15.671875 0.21875l0 1.34375l-6.265625 0l0 -15.21875l27.984375 0zm-21.71875 8.5l15.453125 0l0 -3.140625l-15.453125 0l0 3.140625zm78.15625 12.3125l0 -1.5625l-23.96875 0l0 2.453125l-5.59375 0l0 -49.703125l35.140625 0l0 48.8125l-5.578125 0zm-32.265625 1.125l-6.25 0l0 -25.109375q-0.1875 0.328125 -3.4375 3.875l-3.984375 -5.21875q7.90625 -9.3125 10.734375 -26.71875l5.890625 2.25q2.34375 2.296875 -0.390625 2.671875q-0.796875 4.578125 -2.921875 10.953125q4.109375 0.328125 0.359375 2.84375l0 34.453125zm16.34375 -23.75l0 5.390625l8.296875 0l0 -5.390625l-8.296875 0zm-8.046875 -20.140625l0 35.15625l23.96875 0l0 -35.15625l-23.96875 0zm15.0 5.609375l8.5 0l0 6.03125l-8.5 0l0 3.140625l6.9375 0l0 17.90625l-5.59375 0l0 -1.796875l-8.296875 0l0 2.6875l-5.578125 0l0 -18.796875l6.265625 0l0 -3.140625l-8.28125 0l0 -6.03125l8.28125 0l0 -5.828125l5.1875 0q4.125 0.5 1.078125 2.6875l0 3.140625zm43.328125 33.453125q9.515625 -5.109375 9.515625 -16.453125l0 -26.828125l5.546875 1.0625l12.46875 -3.9375l3.828125 5.109375q1.15625 3.421875 -2.46875 1.78125l-13.109375 2.5l0 8.0l17.6875 0l0 6.046875l-6.71875 0l0 27.984375l-6.265625 0l0 -27.984375l-4.703125 0l0 7.609375q0 13.734375 -12.421875 20.9375l-3.359375 -5.828125zm-2.140625 5.5l-6.25 0l0 -11.1875q-2.03125 3.28125 -7.078125 7.265625l-4.53125 -5.4375q6.90625 -4.921875 10.203125 -10.125l-8.671875 0l0 -6.046875l10.078125 0l0 -3.140625l-11.421875 0l0 -6.03125l15.90625 0l1.921875 -6.28125l-16.265625 0l0 -6.03125l9.859375 0l0 -6.28125l5.203125 0q4.125 0.53125 1.046875 2.703125l0 3.578125l9.859375 0l0 6.03125l-3.1875 0l-2.453125 6.28125l6.75 0l0 6.03125l-10.96875 0l0 3.140625l9.859375 0l0 6.046875l-9.859375 0l0 0.453125q2.625 0.75 9.046875 5.109375l-3.71875 6.171875q-3.859375 -3.859375 -5.328125 -4.765625l0 12.515625zm-10.453125 -33.15625q-1.109375 -3.890625 -3.15625 -7.6875l5.953125 -1.875q2.21875 3.625 3.390625 7.703125l-6.1875 1.859375zm73.5625 -15.671875q4.796875 5.296875 8.65625 11.75l-5.765625 3.328125l-1.953125 -2.9375l-18.703125 1.890625q-0.359375 2.625 -2.703125 0.3125l-1.6875 -6.71875l6.5625 0l4.546875 -12.25l6.609375 1.578125q2.34375 2.359375 -0.5625 2.765625l-4.34375 7.578125l7.234375 -0.453125l-2.984375 -3.984375l5.09375 -2.859375zm-11.15625 20.609375l0 2.015625l8.734375 0l0 -2.015625l-8.734375 0zm0 8.0625l0 2.015625l8.734375 0l0 -2.015625l-8.734375 0zm15.0 -14.109375l0 29.109375q0 4.484375 -4.46875 4.484375l-4.578125 0l-0.953125 -6.046875l3.953125 0q0 0.21875 -0.21875 0.21875l0 -5.59375l-8.734375 0l0 11.640625l-6.265625 0l0 -33.8125l21.265625 0zm9.015625 8.734375q4.109375 0.53125 1.0625 2.6875l0 4.09375l12.265625 -4.515625l2.703125 4.609375q0.5 3.53125 -2.328125 1.921875l-12.640625 3.3125l0 5.578125q0 0.6875 0.453125 0.6875l8.953125 0q0.796875 0 0.921875 -0.828125l0.828125 -4.703125l6.453125 1.21875l-1.0625 6.03125q-0.8125 4.3125 -4.671875 4.3125l-13.21875 0q-4.921875 0 -4.921875 -4.703125l0 -19.703125l5.203125 0zm15.140625 -17.125q0.5 3.59375 -2.328125 1.953125l-11.75 3.3125l0 4.6875q0 0.6875 0.453125 0.6875l8.953125 0q0.5625 0 0.671875 -1.015625l0.5625 -4.984375l6.4375 1.25l-0.515625 5.734375q-0.53125 5.046875 -5.140625 5.046875l-12.765625 0q-4.921875 0 -4.921875 -4.703125l0 -20.8125l5.1875 0q4.125 0.5 1.078125 2.6875l0 6.03125l10.859375 -4.6875l3.21875 4.8125zm12.015625 34.515625q18.046875 -6.15625 19.09375 -25.6875l-16.078125 0l0 -6.703125l16.34375 0l0 -11.421875l5.90625 0q4.4375 0.890625 1.03125 3.171875l0 8.25l19.71875 0q-0.46875 18.84375 -0.90625 27.8125q-0.5 9.796875 -7.609375 9.796875l-9.71875 0l-1.203125 -6.703125l8.671875 0q2.75 0 2.921875 -2.75q0.453125 -6.484375 0.859375 -21.453125l-12.96875 0q0 23.90625 -22.828125 32.71875l-3.234375 -7.03125z" fill-rule="nonzero"/></g></svg>