<svg width="750" height="450" viewBox="0 0 750 450" xmlns="http://www.w3.org/2000/svg">
  <defs>
    <pattern id="grid" width="30" height="30" patternUnits="userSpaceOnUse">
      <path d="M 30 0 L 0 0 0 30" fill="none" stroke="#f0f0f0" stroke-width="1"/>
    </pattern>
  </defs>
  <rect width="100%" height="100%" fill="url(#grid)" />

  <rect x="225" y="75" width="180" height="300" rx="6" fill="none" stroke="#333" stroke-width="3" />
  <text x="225" y="60" font-family="Arial" font-size="24" font-weight="bold" fill="#333">internal buffer</text>

  <line x1="210" x2="420" y1="150" y2="150" stroke="#e74c3c" stroke-width="3" stroke-dasharray="7.5,7.5" />
  <text x="427.5" y="157.5" font-family="monospace" font-size="21" fill="#e74c3c">highWaterMark</text>

  <rect x="240" y="315" width="150" height="45" rx="3" fill="#3498db" opacity="0.8" stroke="#2980b9" />
  <text x="285" y="345" font-family="Arial" font-size="18" fill="white">chunk</text>

  <rect x="240" y="262.5" width="150" height="45" rx="3" fill="#3498db" opacity="0.8" stroke="#2980b9" />
  <text x="285" y="292.5" font-family="Arial" font-size="18" fill="white">chunk</text>

  <rect x="240" y="210" width="150" height="45" rx="3" fill="#3498db" opacity="0.4" stroke="#2980b9" />
  <text x="285" y="240" font-family="Arial" font-size="18" fill="#2980b9">chunk</text>

  <path d="M 75 270 L 195 270" fill="none" stroke="#2c3e50" stroke-width="3" marker-end="url(#arrowhead)" />
  <text x="75" y="255" font-family="Arial" font-size="21" fill="#2c3e50" font-style="italic">.write(chunk)</text>

  <path d="M 420 270 L 555 270" fill="none" stroke="#2c3e50" stroke-width="3" marker-end="url(#arrowhead)" />
  <text x="420" y="255" font-family="Arial" font-size="21" fill="#2c3e50" font-style="italic">._write(chunk)</text>

  <defs>
    <marker id="arrowhead" markerWidth="10" markerHeight="7" refX="0" refY="3.5" orient="auto">
      <polygon points="0 0, 10 3.5, 0 7" fill="#2c3e50" />
    </marker>
  </defs>
</svg>